<svg xmlns="http://www.w3.org/2000/svg" width="203.65883" height="78.280937" viewBox="0 0 203.65883 78.280937">
  <g fill="#09c" transform="matrix(.62514 0 0 -.62514 -95.8726125 368.86053625)">
    <path d="M245.5898 526.1392s-3.805-12.021-12.667-16.559c0 0-2.48.965-7.437 21.228 0 0 8.474 13.06 14.875 12.368 0 0 10.291-.174 5.229-17.037"/>
    <path d="M248.9355 514.6963s-11.17-12.768-28.984-20.492l-5.535 18.766s-10.09-18.852-22.657-17.988l-12.166 44.179s-4.034 10.839 5.047 11.839h12.134c-6.631-1-3.486-11.4-3.486-11.4l6.355-23.827s2.6-6.587 9-.825c0 0 2.815 2.214 3.854 3.612l-8.345 32.44h11.994s3.919 1.073 4.929-3.737l2.896-10.909s5.36 8.887 8.648 11.679c0 0 10.421 11.195 20.02 1.596 0 0 14.038-12.981-3.704-34.933m-32.963 75.351c-34.577 0-62.61-28.03-62.61-62.611 0-34.578 28.033-62.611 62.61-62.611 34.583 0 62.611 28.033 62.611 62.611 0 34.581-28.028 62.611-62.611 62.611M312.9102 543.9678h4.386v-26.402h15.222v-3.655h-19.608v30.057zM354.4053 525.0479l-5.418 14.061-5.418-14.061h10.836zm-7.525 18.92h4.214l11.997-30.057h-4.472l-3.01 7.482h-13.287l-2.924-7.482h-4.515l11.997 30.057zM379.8604 543.9678h7.826l5.03-17.802 4.86 17.802h5.418l4.557-17.845 4.989 17.845h7.826l-8.299-30.057h-7.009l-4.945 17.458-4.902-17.458h-7.052l-8.299 30.057zM437.4365 525.9507l-3.654 10.105-3.699-10.105h7.353zm-7.396 18.017h7.482l11.997-30.057h-7.783l-2.407 6.192h-11.095l-2.407-6.192h-7.827l12.04 30.057zM467.6221 519.5864c1.29 0 2.25.244 2.881.731.63.487.946 1.347.946 2.58 0 1.232-.33 2.129-.989 2.688-.66.559-1.663.838-3.01.838h-6.235v-6.837h6.407zm-.473 12.47c2.236 0 3.354 1.046 3.354 3.139 0 1.175-.287 1.985-.86 2.43-.574.444-1.448.666-2.624.666h-5.804v-6.235h5.934zm-13.546 11.911h15.223c2.895 0 5.182-.716 6.859-2.15 1.676-1.434 2.515-3.483 2.515-6.149 0-1.262-.287-2.436-.86-3.526-.573-1.09-1.391-1.95-2.451-2.58 1.462-.574 2.537-1.397 3.225-2.472.688-1.075 1.031-2.473 1.031-4.193 0-1.834-.429-3.433-1.29-4.794-.859-1.362-2.013-2.402-3.461-3.118-1.448-.717-3.06-1.075-4.837-1.075h-15.954v30.057zM312.71 492.1821v10.106h2.278v-8.184h3.999v-1.922h-6.277zM320.9717 492.1821v10.106h6.324v-1.922h-4.046v-2.031h3.442v-1.906h-3.442v-2.325h4.201v-1.922h-6.479zM335.3086 494.0269h.435c.857 0 1.549.24 2.077.721.526.48.79 1.325.79 2.534 0 1.209-.264 2.038-.79 2.488-.528.449-1.22.674-2.077.674h-.435v-6.417zm-2.278-1.845v10.106h2.852c1.539 0 2.769-.4 3.689-1.201.92-.801 1.38-2.069 1.38-3.805 0-1.736-.456-3.02-1.365-3.852-.909-.832-2.102-1.248-3.58-1.248h-2.976zM343.104 502.288h2.278v-10.106h-2.278v10.106zM352.4668 491.9961c-1.385 0-2.555.439-3.511 1.317-.956.879-1.433 2.165-1.433 3.86 0 1.116.222 2.069.667 2.86.443.79 1.041 1.395 1.79 1.813.749.419 1.573.628 2.471.628.724 0 1.352-.134 1.884-.403.532-.269.963-.574 1.294-.914l-1.193-1.457c-.259.227-.532.418-.822.573-.29.155-.651.233-1.085.233-.785 0-1.425-.29-1.921-.868-.496-.58-.745-1.375-.745-2.388 0-1.043.235-1.852.706-2.425.469-.574 1.18-.86 2.13-.86.466 0 .828.103 1.085.309v1.737h-1.673v1.86h3.689v-4.65c-.352-.342-.819-.631-1.403-.869-.584-.237-1.227-.356-1.93-.356M358.124 502.288h2.278v-10.106h-2.278v10.106zM364.9912 492.1821v8.184h-2.774v1.922h7.842v-1.922h-2.774v-8.184h-2.294zM373.625 497.2974l-.248-.93h2.154l-.232.93c-.146.506-.284 1.043-.419 1.612-.134.568-.269 1.116-.402 1.643h-.063c-.124-.538-.251-1.088-.38-1.651s-.265-1.098-.41-1.604m2.991-5.115l-.62 2.402h-3.085l-.619-2.402h-2.325l3.162 10.106h2.743l3.162-10.106h-2.418zM380.3662 492.1821v10.106h2.278v-8.184h3.999v-1.922h-6.277zM396.1758 491.9961c-.857 0-1.641.196-2.348.589-.708.392-1.276.971-1.705 1.736-.428.765-.643 1.715-.643 2.852 0 1.116.219 2.069.659 2.86.438.79 1.022 1.395 1.751 1.813.728.419 1.516.628 2.364.628.651 0 1.234-.132 1.751-.395.517-.264.945-.571 1.287-.922l-1.209-1.457c-.259.237-.53.431-.814.581-.284.15-.607.225-.969.225-.692 0-1.278-.29-1.759-.868-.48-.58-.72-1.375-.72-2.388 0-1.043.221-1.852.666-2.425.444-.574 1.039-.86 1.783-.86.413 0 .782.09 1.107.271.326.18.612.405.861.674l1.209-1.426c-.847-.992-1.938-1.488-3.271-1.488M404.748 493.9648c.692 0 1.24.299 1.644.899.402.599.604 1.405.604 2.418 0 1.002-.202 1.79-.604 2.364-.404.573-.952.86-1.644.86s-1.24-.287-1.643-.86c-.403-.574-.604-1.362-.604-2.364 0-1.013.201-1.819.604-2.418.403-.6.951-.899 1.643-.899m0-1.969c-1.364 0-2.47.468-3.316 1.403-.848.935-1.272 2.23-1.272 3.883s.424 2.932 1.272 3.836c.846.904 1.952 1.356 3.316 1.356 1.364 0 2.47-.454 3.317-1.363.847-.91 1.271-2.186 1.271-3.829 0-1.653-.424-2.948-1.271-3.883s-1.953-1.403-3.317-1.403M415.582 493.9648c.692 0 1.24.299 1.644.899.402.599.604 1.405.604 2.418 0 1.002-.202 1.79-.604 2.364-.404.573-.952.86-1.644.86s-1.24-.287-1.643-.86c-.403-.574-.604-1.362-.604-2.364 0-1.013.201-1.819.604-2.418.403-.6.951-.899 1.643-.899m0-1.969c-1.364 0-2.47.468-3.316 1.403-.848.935-1.272 2.23-1.272 3.883s.424 2.932 1.272 3.836c.846.904 1.952 1.356 3.316 1.356 1.364 0 2.47-.454 3.317-1.363.847-.91 1.271-2.186 1.271-3.829 0-1.653-.424-2.948-1.271-3.883s-1.953-1.403-3.317-1.403M424.5879 497.4209h1.116c1.24 0 1.861.538 1.861 1.612 0 .527-.166.899-.497 1.116-.331.217-.805.326-1.425.326h-1.055v-3.054zm-2.278-5.239v10.106h3.471c1.107 0 2.052-.238 2.837-.713.785-.475 1.178-1.322 1.178-2.542 0-1.188-.393-2.056-1.178-2.604-.785-.548-1.71-.821-2.774-.821h-1.256v-3.426h-2.278zM434.8945 502.7222l-1.022 1.147 2.65 2.17 1.209-1.473-2.837-1.844zm-3.115-10.54v10.106h6.324v-1.922h-4.046v-2.031h3.441v-1.906h-3.441v-2.325h4.201v-1.922h-6.479zM442.7842 497.6382h1.179c1.229 0 1.843.501 1.843 1.503 0 .497-.157.843-.472 1.039-.316.196-.773.294-1.371.294h-1.179v-2.836zm0-5.456h-2.278v10.106h3.642c1.074 0 1.992-.225 2.751-.674.76-.45 1.14-1.274 1.14-2.473 0-.744-.165-1.354-.496-1.829-.331-.475-.765-.837-1.302-1.085l2.294-4.045h-2.558l-1.937 3.643h-1.256v-3.643zM452.4883 497.2974l-.248-.93h2.154l-.232.93c-.146.506-.284 1.043-.419 1.612-.134.568-.269 1.116-.402 1.643h-.063c-.124-.538-.251-1.088-.38-1.651s-.265-1.098-.41-1.604m2.991-5.115l-.62 2.402h-3.085l-.619-2.402h-2.325l3.162 10.106h2.743l3.162-10.106h-2.418zM460.0674 492.1821v8.184h-2.774v1.922h7.842v-1.922h-2.774v-8.184h-2.294zM466.949 502.288h2.278v-10.106h-2.278v10.106zM471.8467 492.1821v10.106h6.371v-1.922h-4.093v-2.341h3.503v-1.922h-3.503v-3.921h-2.278z"/>
  </g>
</svg>